<svg width="14" height="14" viewBox="0 0 14 14" fill="none" xmlns="http://www.w3.org/2000/svg">
<path d="M2.57895 0C1.15684 0 0 1.099 0 2.45C0 3.556 0.781053 4.4821 1.84211 4.7859V9.7979C1.84137 9.9232 1.862 11.0446 2.70716 11.8496C3.22884 12.348 3.92737 12.6 4.7821 12.6V14L7.72947 11.9L4.7821 9.8V11.2C3.43884 11.2 3.32021 10.1262 3.31579 9.8V4.7859C4.37684 4.4821 5.15789 3.556 5.15789 2.45C5.15789 1.099 4.00032 0 2.57895 0ZM2.57895 3.5C1.96958 3.5 1.47368 3.0289 1.47368 2.45C1.47368 1.8711 1.96958 1.4 2.57895 1.4C3.18832 1.4 3.68421 1.8711 3.68421 2.45C3.68421 3.0289 3.18832 3.5 2.57895 3.5ZM12.1579 9.2141V4.1979C12.1542 3.0737 11.3643 1.4 9.20316 1.4V0L6.25579 2.1L9.20316 4.2V2.8C10.5508 2.8 10.6776 3.8773 10.6842 4.2V9.2141C9.62316 9.5179 8.8421 10.444 8.8421 11.55C8.8421 12.901 9.99895 14 11.4211 14C12.8432 14 14 12.901 14 11.55C14 10.444 13.2189 9.5179 12.1579 9.2141ZM11.4211 12.6C10.8117 12.6 10.3158 12.1289 10.3158 11.55C10.3158 10.9711 10.8117 10.5 11.4211 10.5C12.0304 10.5 12.5263 10.9711 12.5263 11.55C12.5263 12.1289 12.0304 12.6 11.4211 12.6Z" fill="white"/>
</svg>
