<svg width="18" height="16" viewBox="0 0 18 16" fill="none" xmlns="http://www.w3.org/2000/svg">
<path d="M12.0239 7.99999L16.2669 12.5966L17.6809 11.0637L14.8529 7.99999L17.6799 4.93632L16.2669 3.40341L12.0239 7.99999ZM8.99991 0.416656C9.26513 0.416656 9.51948 0.530793 9.70702 0.733957C9.89455 0.937122 9.99991 1.21267 9.99991 1.49999L9.99991 14.5C9.99991 14.7873 9.89455 15.0629 9.70702 15.266C9.51948 15.4692 9.26513 15.5833 8.99991 15.5833C8.73469 15.5833 8.48034 15.4692 8.2928 15.266C8.10527 15.0629 7.99991 14.7873 7.99991 14.5L7.99991 1.49999C7.99991 1.21267 8.10527 0.937122 8.2928 0.733957C8.48034 0.530793 8.73469 0.416656 8.99991 0.416656ZM5.97591 7.99999L1.73291 3.40341L0.31891 4.93632L3.14691 7.99999L0.31891 11.0637L1.73291 12.5966L5.97591 7.99999Z" fill="black"/>
</svg>
