<svg width="14" height="17" viewBox="0 0 14 17" fill="none" xmlns="http://www.w3.org/2000/svg">
<path d="M4 2.16685V11.1667C4 11.5646 4.15803 11.9461 4.43933 12.2274C4.72064 12.5087 5.10216 12.6667 5.49998 12.6667H11.4999C11.8977 12.6667 12.2793 12.5087 12.5606 12.2274C12.8419 11.9461 12.9999 11.5646 12.9999 11.1667V4.59832C12.9999 4.39849 12.9599 4.20069 12.8824 4.01651C12.8048 3.83234 12.6913 3.66551 12.5484 3.52583L10.0622 1.09436C9.78195 0.820362 9.40561 0.666919 9.01369 0.66687H5.49998C5.10216 0.66687 4.72064 0.824903 4.43933 1.1062C4.15803 1.38751 4 1.76903 4 2.16685V2.16685Z" stroke="white" stroke-width="1.2" stroke-linecap="round" stroke-linejoin="round"/>
<path d="M9.99989 12.6666V14.1666C9.99989 14.5644 9.84186 14.946 9.56056 15.2273C9.27925 15.5086 8.89773 15.6666 8.49991 15.6666H2.49998C2.10216 15.6666 1.72064 15.5086 1.43933 15.2273C1.15803 14.946 1 14.5644 1 14.1666V5.91673C1 5.51891 1.15803 5.13738 1.43933 4.85608C1.72064 4.57478 2.10216 4.41675 2.49998 4.41675H3.99996" stroke="white" stroke-width="1.2" stroke-linecap="round" stroke-linejoin="round"/>
</svg>
