<svg width="17" height="16" viewBox="0 0 17 16" fill="none" xmlns="http://www.w3.org/2000/svg">
<path d="M4.47956 11.6658L5.52122 10.3642L2.16789 7.68167L5.52122 4.99917L4.47956 3.6975L0.312891 7.03083C0.215262 7.1089 0.136448 7.20793 0.0822852 7.3206C0.0281227 7.43326 0 7.55666 0 7.68167C0 7.80667 0.0281227 7.93007 0.0822852 8.04274C0.136448 8.1554 0.215262 8.25443 0.312891 8.3325L4.47956 11.6658ZM12.1879 3.6975L11.1462 4.99917L14.4996 7.68167L11.1462 10.3642L12.1879 11.6658L16.3546 8.3325C16.4522 8.25443 16.531 8.1554 16.5852 8.04274C16.6393 7.93007 16.6674 7.80667 16.6674 7.68167C16.6674 7.55666 16.6393 7.43326 16.5852 7.3206C16.531 7.20793 16.4522 7.1089 16.3546 7.03083L12.1879 3.6975ZM10.8137 0.361667L7.48039 15.3617L5.85289 15L9.18622 0L10.8137 0.361667Z" fill="white"/>
</svg>
