<svg width="12" height="15" viewBox="0 0 12 15" fill="none" xmlns="http://www.w3.org/2000/svg">
<path d="M11.0667 4.79167L6.45833 0.183333C6.34124 0.0660896 6.18237 0.000145877 6.01667 0H2.29167C1.68388 0 1.10098 0.241443 0.671213 0.671213C0.241443 1.10098 0 1.68388 0 2.29167V12.2917C0 12.8995 0.241443 13.4823 0.671213 13.9121C1.10098 14.3419 1.68388 14.5833 2.29167 14.5833H8.95833C9.56612 14.5833 10.149 14.3419 10.5788 13.9121C11.0086 13.4823 11.25 12.8995 11.25 12.2917V5.20833C11.2434 5.05134 11.178 4.90257 11.0667 4.79167V4.79167ZM6.66667 2.13333L9.11667 4.58333H6.66667V2.13333ZM8.95833 13.3333H2.29167C2.0154 13.3333 1.75045 13.2236 1.5551 13.0282C1.35975 12.8329 1.25 12.5679 1.25 12.2917V2.29167C1.25 2.0154 1.35975 1.75045 1.5551 1.5551C1.75045 1.35975 2.0154 1.25 2.29167 1.25H5.41667V5.20833C5.41882 5.37342 5.48537 5.53114 5.60211 5.64789C5.71886 5.76463 5.87658 5.83117 6.04167 5.83333H10V12.2917C10 12.5679 9.89025 12.8329 9.6949 13.0282C9.49955 13.2236 9.2346 13.3333 8.95833 13.3333Z" fill="white"/>
<path d="M6.86643 9.66669C6.35402 9.34514 5.96839 8.85648 5.77477 8.28335C5.95419 7.74719 6.00835 7.17704 5.9331 6.61668C5.90907 6.47551 5.84022 6.34583 5.73675 6.24684C5.63327 6.14784 5.50067 6.0848 5.35858 6.06704C5.21648 6.04928 5.07244 6.07774 4.94778 6.14822C4.82313 6.2187 4.72447 6.32744 4.66643 6.45835C4.57156 7.13203 4.64309 7.81869 4.87477 8.45835C4.55826 9.19773 4.20504 9.92086 3.81643 10.625C3.22477 10.9584 2.41643 11.4584 2.29143 12.0334C2.19143 12.5 3.06643 13.7 4.5581 11.1C5.22137 10.8538 5.90074 10.6533 6.59143 10.5C7.102 10.7919 7.67153 10.9656 8.2581 11.0084C8.39278 11.0118 8.52549 10.9754 8.63955 10.9037C8.7536 10.832 8.84392 10.7282 8.89913 10.6053C8.95434 10.4824 8.972 10.3459 8.94987 10.213C8.92774 10.0801 8.86682 9.95673 8.77477 9.85835C8.42477 9.50002 7.3831 9.60002 6.86643 9.66669V9.66669ZM2.8831 12.1667C3.11663 11.767 3.42504 11.4162 3.79143 11.1334C3.22477 12.0334 2.8831 12.1917 2.8831 12.175V12.1667ZM5.31643 6.49169C5.5331 6.49169 5.51643 7.45002 5.36643 7.70835C5.25344 7.31536 5.23629 6.901 5.31643 6.50002V6.49169ZM4.59143 10.5584C4.87377 10.0432 5.11884 9.50851 5.32477 8.95835C5.54553 9.36916 5.85255 9.72736 6.22477 10.0084C5.66565 10.1484 5.11928 10.3352 4.59143 10.5667V10.5584ZM8.5081 10.4084C8.5081 10.4084 8.3581 10.5917 7.39977 10.175C8.44143 10.1084 8.61643 10.35 8.5081 10.4167V10.4084Z" fill="white"/>
</svg>
