<svg width="17" height="14" viewBox="0 0 17 14" fill="none" xmlns="http://www.w3.org/2000/svg">
<path d="M12.75 12.205H1.7V4.12757H3.90575C3.90575 4.12757 4.4914 3.32342 5.75025 2.33259H0.85C0.624566 2.33259 0.408365 2.42714 0.248959 2.59546C0.0895533 2.76377 0 2.99205 0 3.23008L0 13.1025C0 13.3405 0.0895533 13.5688 0.248959 13.7371C0.408365 13.9054 0.624566 14 0.85 14H13.6C13.8254 14 14.0416 13.9054 14.201 13.7371C14.3604 13.5688 14.45 13.3405 14.45 13.1025V9.7405L12.75 11.2169V12.205ZM11.3569 5.96743V9.15443L17 4.48657L11.3569 0V2.81005C4.505 2.81005 4.505 9.96128 4.505 9.96128C6.4447 6.59747 7.6381 5.96743 11.3569 5.96743Z" fill="black"/>
</svg>
