<?xml version="1.0" encoding="UTF-8" standalone="no" ?>
<!DOCTYPE svg PUBLIC "-//W3C//DTD SVG 1.1//EN" "http://www.w3.org/Graphics/SVG/1.1/DTD/svg11.dtd">
<svg xmlns="http://www.w3.org/2000/svg" xmlns:xlink="http://www.w3.org/1999/xlink" version="1.1" width="640" height="180" viewBox="0 0 640 180" xml:space="preserve">
<desc>Created with Fabric.js 3.6.3</desc>
<defs>
</defs>
<g transform="matrix(1.57 0 0 1.57 314.43 92.57)"  >
<g style=""   >
		<g transform="matrix(1.33 0 0 -1.33 -94.53 36.96)" clip-path="url(#CLIPPATH_5)"  >
<clipPath id="CLIPPATH_5" >
	<path transform="matrix(1 0 0 1 70.88 27.74) translate(-212.6, -85.04)" d="M 0 170.079 H 425.2 V 0 H 0 Z" stroke-linecap="round" />
</clipPath>
<path style="stroke: none; stroke-width: 1; stroke-dasharray: none; stroke-linecap: butt; stroke-dashoffset: 0; stroke-linejoin: miter; stroke-miterlimit: 4; fill: rgb(35,31,32); fill-rule: nonzero; opacity: 1;"  transform=" translate(-1.81, -4.03)" d="m 0 0 l 1.702 0.016 c 0.69 0 1.175 0.175 1.457 0.526 C 3.44 0.892 3.581 1.3 3.581 1.767 C 3.581 2.234 3.43 2.648 3.127 3.008 C 2.825 3.369 2.323 3.549 1.623 3.549 H 0 Z M 0 8.069 V 5.061 h 1.464 c 0.604 0 1.031 0.146 1.28 0.438 c 0.25 0.292 0.375 0.644 0.375 1.058 c 0 0.998 -0.546 1.497 -1.639 1.497 C 0.801 8.054 0.307 8.058 0 8.069 M -1.894 9.485 C -0.302 9.527 0.843 9.549 1.543 9.549 C 2.7 9.549 3.585 9.302 4.201 8.809 C 4.816 8.316 5.124 7.602 5.124 6.668 C 5.124 6.169 4.989 5.719 4.718 5.316 C 4.448 4.913 4.094 4.621 3.66 4.441 C 4.222 4.271 4.692 3.928 5.068 3.414 C 5.444 2.899 5.633 2.318 5.633 1.672 C 5.633 0.685 5.305 -0.087 4.647 -0.644 C 3.989 -1.201 3.028 -1.48 1.766 -1.48 c -0.764 0 -1.984 0.022 -3.66 0.064 L -2.006 -1.32 V 9.39 Z" stroke-linecap="round" />
</g>
		<g transform="matrix(1.33 0 0 -1.33 -82.97 38.95)" clip-path="url(#CLIPPATH_6)"  >
<clipPath id="CLIPPATH_6" >
	<path transform="matrix(1 0 0 1 62.21 29.23) translate(-212.6, -85.04)" d="M 0 170.079 H 425.2 V 0 H 0 Z" stroke-linecap="round" />
</clipPath>
<path style="stroke: none; stroke-width: 1; stroke-dasharray: none; stroke-linecap: butt; stroke-dashoffset: 0; stroke-linejoin: miter; stroke-miterlimit: 4; fill: rgb(35,31,32); fill-rule: nonzero; opacity: 1;"  transform=" translate(0, 2.67)" d="m 0 0 c -1.002 0 -1.503 -0.891 -1.503 -2.674 c 0 -1.782 0.501 -2.674 1.503 -2.674 c 1.003 0 1.505 0.892 1.505 2.674 C 1.505 -0.891 1.003 0 0 0 m 3.525 -2.674 c 0 -1.422 -0.376 -2.509 -1.13 -3.262 C 1.791 -6.541 0.992 -6.843 0 -6.843 c -0.992 0 -1.79 0.302 -2.394 0.907 c -0.754 0.753 -1.131 1.84 -1.131 3.262 c 0 1.422 0.377 2.509 1.131 3.263 c 0.604 0.604 1.402 0.906 2.394 0.906 c 0.992 0 1.791 -0.302 2.395 -0.906 c 0.754 -0.754 1.13 -1.841 1.13 -3.263" stroke-linecap="round" />
</g>
		<g transform="matrix(1.33 0 0 -1.33 -72.82 38.95)" clip-path="url(#CLIPPATH_7)"  >
<clipPath id="CLIPPATH_7" >
	<path transform="matrix(1 0 0 1 54.61 29.23) translate(-212.6, -85.04)" d="M 0 170.079 H 425.2 V 0 H 0 Z" stroke-linecap="round" />
</clipPath>
<path style="stroke: none; stroke-width: 1; stroke-dasharray: none; stroke-linecap: butt; stroke-dashoffset: 0; stroke-linejoin: miter; stroke-miterlimit: 4; fill: rgb(35,31,32); fill-rule: nonzero; opacity: 1;"  transform=" translate(-3.05, -3.37)" d="m 0 0 c 0.01 0.213 0.074 0.453 0.191 0.724 c 0.117 0.27 0.254 0.481 0.414 0.629 c 0.848 -0.456 1.59 -0.685 2.228 -0.685 c 0.382 0 0.681 0.075 0.899 0.223 c 0.217 0.149 0.326 0.345 0.326 0.59 c 0 0.413 -0.297 0.732 -0.891 0.954 L 2.276 2.769 C 0.939 3.268 0.27 4.036 0.27 5.077 c 0 0.742 0.271 1.339 0.812 1.79 c 0.541 0.451 1.26 0.676 2.157 0.676 c 0.896 0 1.79 -0.206 2.682 -0.62 C 5.931 6.679 5.881 6.419 5.769 6.143 C 5.657 5.867 5.517 5.66 5.347 5.523 C 4.561 5.883 3.846 6.064 3.199 6.064 C 2.901 6.064 2.666 5.994 2.491 5.857 C 2.316 5.718 2.228 5.533 2.228 5.3 C 2.228 4.96 2.509 4.69 3.072 4.488 L 4.042 4.122 C 5.41 3.613 6.096 2.796 6.096 1.672 C 6.096 0.918 5.811 0.318 5.243 -0.127 C 4.676 -0.573 3.891 -0.795 2.889 -0.795 C 1.885 -0.795 0.923 -0.531 0 0" stroke-linecap="round" />
</g>
		<g transform="matrix(1.33 0 0 -1.33 -62.06 38.93)" clip-path="url(#CLIPPATH_8)"  >
<clipPath id="CLIPPATH_8" >
	<path transform="matrix(1 0 0 1 46.53 29.21) translate(-212.6, -85.04)" d="M 0 170.079 H 425.2 V 0 H 0 Z" stroke-linecap="round" />
</clipPath>
<path style="stroke: none; stroke-width: 1; stroke-dasharray: none; stroke-linecap: butt; stroke-dashoffset: 0; stroke-linejoin: miter; stroke-miterlimit: 4; fill: rgb(35,31,32); fill-rule: nonzero; opacity: 1;"  transform=" translate(3.09, 1.37)" d="m 0 0 v -3.533 c 0 -0.648 0.106 -1.147 0.318 -1.497 c -0.35 -0.276 -0.74 -0.413 -1.169 -0.413 c -0.43 0 -0.725 0.101 -0.884 0.302 c -0.159 0.201 -0.239 0.515 -0.239 0.939 v 3.787 c 0 0.479 -0.064 0.821 -0.191 1.028 c -0.127 0.206 -0.356 0.31 -0.684 0.31 c -0.604 0 -1.161 -0.266 -1.67 -0.796 v -5.459 c -0.298 -0.053 -0.622 -0.079 -0.972 -0.079 c -0.35 0 -0.684 0.026 -1.002 0.079 v 7.878 l 0.111 0.095 h 0.732 c 0.604 0 0.966 -0.318 1.083 -0.955 c 0.774 0.679 1.545 1.019 2.315 1.019 c 0.769 0 1.337 -0.249 1.703 -0.748 C -0.183 1.458 0 0.806 0 0" stroke-linecap="round" />
</g>
		<g transform="matrix(1.33 0 0 -1.33 -51.12 38.99)" clip-path="url(#CLIPPATH_9)"  >
<clipPath id="CLIPPATH_9" >
	<path transform="matrix(1 0 0 1 38.33 29.25) translate(-212.6, -85.04)" d="M 0 170.079 H 425.2 V 0 H 0 Z" stroke-linecap="round" />
</clipPath>
<path style="stroke: none; stroke-width: 1; stroke-dasharray: none; stroke-linecap: butt; stroke-dashoffset: 0; stroke-linejoin: miter; stroke-miterlimit: 4; fill: rgb(35,31,32); fill-rule: nonzero; opacity: 1;"  transform=" translate(-0.56, -2.63)" d="M 0 0 C 0.551 0 1.082 0.255 1.591 0.765 V 2.181 C 1.219 2.223 0.817 2.244 0.382 2.244 C -0.053 2.244 -0.382 2.133 -0.605 1.91 C -0.827 1.688 -0.94 1.406 -0.94 1.067 C -0.94 0.727 -0.855 0.465 -0.684 0.278 C -0.515 0.093 -0.286 0 0 0 M 3.994 -0.398 C 3.941 -0.578 3.848 -0.766 3.716 -0.963 C 3.583 -1.159 3.448 -1.31 3.31 -1.416 c -0.658 0.074 -1.141 0.382 -1.449 0.923 c -0.7 -0.679 -1.459 -1.018 -2.275 -1.018 c -0.817 0 -1.433 0.238 -1.846 0.716 c -0.414 0.477 -0.621 1.029 -0.621 1.655 c 0 0.891 0.289 1.562 0.867 2.013 c 0.579 0.451 1.319 0.676 2.221 0.676 c 0.487 0 0.949 -0.021 1.384 -0.064 v 0.478 c 0 0.838 -0.403 1.258 -1.209 1.258 c -0.573 0 -1.385 -0.191 -2.435 -0.573 c -0.308 0.328 -0.483 0.801 -0.525 1.416 c 1.145 0.477 2.292 0.716 3.437 0.716 c 0.796 0 1.443 -0.223 1.942 -0.669 C 3.299 5.666 3.549 4.992 3.549 4.091 V 0.844 c 0 -0.584 0.148 -0.997 0.445 -1.242" stroke-linecap="round" />
</g>
		<g transform="matrix(1.33 0 0 -1.33 -38.52 36.85)" clip-path="url(#CLIPPATH_10)"  >
<clipPath id="CLIPPATH_10" >
	<path transform="matrix(1 0 0 1 28.88 27.65) translate(-212.6, -85.04)" d="M 0 170.079 H 425.2 V 0 H 0 Z" stroke-linecap="round" />
</clipPath>
<path style="stroke: none; stroke-width: 1; stroke-dasharray: none; stroke-linecap: butt; stroke-dashoffset: 0; stroke-linejoin: miter; stroke-miterlimit: 4; fill: rgb(35,31,32); fill-rule: nonzero; opacity: 1;"  transform=" translate(-0.83, 3.8)" d="m 0 0 c -0.106 0.243 -0.159 0.506 -0.159 0.788 c 0 0.28 0.053 0.543 0.159 0.787 c 0.276 0.149 0.618 0.223 1.026 0.223 c 0.409 0 0.735 -0.074 0.98 -0.223 C 2.111 1.331 2.165 1.068 2.165 0.788 C 2.165 0.506 2.111 0.243 2.006 0 C 1.761 -0.149 1.419 -0.223 0.978 -0.223 C 0.539 -0.223 0.213 -0.149 0 0 m 2.308 -2.976 v -6.35 c -0.298 -0.054 -0.62 -0.08 -0.972 -0.08 c -0.35 0 -0.684 0.026 -1.002 0.08 v 5.618 c 0 0.573 -0.239 0.859 -0.716 0.859 h -0.191 c -0.053 0.18 -0.079 0.408 -0.079 0.684 c 0 0.276 0.026 0.515 0.079 0.716 c 0.382 0.042 0.77 0.064 1.162 0.064 h 0.254 c 0.457 0 0.815 -0.143 1.075 -0.43 c 0.259 -0.286 0.39 -0.674 0.39 -1.161" stroke-linecap="round" />
</g>
		<g transform="matrix(1.33 0 0 -1.33 -23.2 36.97)" clip-path="url(#CLIPPATH_11)"  >
<clipPath id="CLIPPATH_11" >
	<path transform="matrix(1 0 0 1 17.38 27.74) translate(-212.6, -85.04)" d="M 0 170.079 H 425.2 V 0 H 0 Z" stroke-linecap="round" />
</clipPath>
<path style="stroke: none; stroke-width: 1; stroke-dasharray: none; stroke-linecap: butt; stroke-dashoffset: 0; stroke-linejoin: miter; stroke-miterlimit: 4; fill: rgb(35,31,32); fill-rule: nonzero; opacity: 1;"  transform=" translate(2.05, 1.01)" d="m 0 0 l -0.016 1.177 v 3.247 c 0.265 0.053 0.602 0.079 1.01 0.079 c 0.408 0 0.746 -0.026 1.011 -0.079 V -6.446 C 1.73 -6.499 1.39 -6.525 0.986 -6.525 c -0.403 0 -0.737 0.026 -1.002 0.079 v 3.581 L 0 -1.688 L -0.859 -1.703 h -2.372 l -0.859 0.015 l 0.016 -1.177 v -3.581 c -0.266 -0.053 -0.604 -0.079 -1.019 -0.079 c -0.414 0 -0.748 0.026 -1.003 0.079 v 10.87 c 0.255 0.053 0.589 0.079 1.003 0.079 c 0.415 0 0.753 -0.026 1.019 -0.079 V 1.177 L -4.09 0 L -3.231 0.016 h 2.372 z" stroke-linecap="round" />
</g>
		<g transform="matrix(1.33 0 0 -1.33 -10.73 38.95)" clip-path="url(#CLIPPATH_12)"  >
<clipPath id="CLIPPATH_12" >
	<path transform="matrix(1 0 0 1 8.04 29.23) translate(-212.6, -85.04)" d="M 0 170.079 H 425.2 V 0 H 0 Z" stroke-linecap="round" />
</clipPath>
<path style="stroke: none; stroke-width: 1; stroke-dasharray: none; stroke-linecap: butt; stroke-dashoffset: 0; stroke-linejoin: miter; stroke-miterlimit: 4; fill: rgb(35,31,32); fill-rule: nonzero; opacity: 1;"  transform=" translate(0.09, 2.74)" d="m 0 0 c -0.87 0 -1.336 -0.658 -1.401 -1.974 h 2.769 v 0.191 c 0 0.531 -0.111 0.96 -0.334 1.29 C 0.811 -0.165 0.467 0 0 0 m 3.072 -3.374 h -4.456 c 0.032 -0.626 0.171 -1.111 0.421 -1.456 c 0.249 -0.345 0.687 -0.518 1.313 -0.518 c 0.626 0 1.32 0.187 2.085 0.558 c 0.297 -0.287 0.488 -0.69 0.573 -1.21 c -0.849 -0.605 -1.87 -0.907 -3.064 -0.907 c -1.193 0 -2.051 0.388 -2.57 1.161 c -0.52 0.775 -0.78 1.778 -0.78 3.008 c 0 1.231 0.287 2.233 0.859 3.008 c 0.573 0.774 1.394 1.162 2.46 1.162 c 1.065 0 1.885 -0.321 2.459 -0.963 c 0.572 -0.642 0.859 -1.451 0.859 -2.427 c 0 -0.488 -0.054 -0.96 -0.159 -1.416" stroke-linecap="round" />
</g>
		<g transform="matrix(1.33 0 0 -1.33 -0.96 38.93)" clip-path="url(#CLIPPATH_13)"  >
<clipPath id="CLIPPATH_13" >
	<path transform="matrix(1 0 0 1 0.71 29.21) translate(-212.6, -85.04)" d="M 0 170.079 H 425.2 V 0 H 0 Z" stroke-linecap="round" />
</clipPath>
<path style="stroke: none; stroke-width: 1; stroke-dasharray: none; stroke-linecap: butt; stroke-dashoffset: 0; stroke-linejoin: miter; stroke-miterlimit: 4; fill: rgb(35,31,32); fill-rule: nonzero; opacity: 1;"  transform=" translate(-2.66, 3.01)" d="M 0 0 C 0.042 0.181 0.13 0.374 0.263 0.581 C 0.395 0.788 0.531 0.939 0.668 1.034 C 1.495 0.907 2.053 0.435 2.34 -0.382 c 0.424 0.945 1.108 1.416 2.052 1.416 c 0.244 0 0.552 -0.037 0.923 -0.111 c 0 -0.69 -0.159 -1.305 -0.477 -1.846 c -0.16 0.042 -0.398 0.074 -0.716 0.096 c -0.647 0 -1.167 -0.346 -1.559 -1.036 V -6.971 C 2.265 -7.024 1.941 -7.05 1.591 -7.05 c -0.35 0 -0.684 0.026 -1.002 0.079 v 5.332 C 0.589 -0.865 0.392 -0.318 0 0" stroke-linecap="round" />
</g>
		<g transform="matrix(1.33 0 0 -1.33 7.37 38.95)" clip-path="url(#CLIPPATH_14)"  >
<clipPath id="CLIPPATH_14" >
	<path transform="matrix(1 0 0 1 -5.53 29.23) translate(-212.6, -85.04)" d="M 0 170.079 H 425.2 V 0 H 0 Z" stroke-linecap="round" />
</clipPath>
<path style="stroke: none; stroke-width: 1; stroke-dasharray: none; stroke-linecap: butt; stroke-dashoffset: 0; stroke-linejoin: miter; stroke-miterlimit: 4; fill: rgb(35,31,32); fill-rule: nonzero; opacity: 1;"  transform=" translate(1.39, 0.72)" d="m 0 0 v 0.191 c 0 0.531 -0.083 0.958 -0.247 1.282 c -0.164 0.322 -0.485 0.485 -0.963 0.485 c -0.901 0 -1.353 -0.878 -1.353 -2.634 c 0 -1.756 0.547 -2.634 1.639 -2.634 c 0.552 0 1.173 0.254 1.863 0.764 c 0.169 -0.106 0.328 -0.27 0.477 -0.494 c 0.149 -0.223 0.249 -0.44 0.302 -0.652 c -0.795 -0.796 -1.761 -1.193 -2.896 -1.193 c -1.136 0 -1.987 0.382 -2.554 1.145 c -0.568 0.764 -0.852 1.804 -0.852 3.12 c 0 1.315 0.335 2.323 1.003 3.023 c 0.668 0.7 1.464 1.05 2.387 1.05 c 0.924 0 1.652 -0.246 2.188 -0.739 C 1.53 2.221 1.798 1.632 1.798 0.948 C 1.798 0.263 1.469 -0.08 0.811 -0.08 C 0.567 -0.08 0.297 -0.053 0 0" stroke-linecap="round" />
</g>
		<g transform="matrix(1.33 0 0 -1.33 17.55 38.95)" clip-path="url(#CLIPPATH_15)"  >
<clipPath id="CLIPPATH_15" >
	<path transform="matrix(1 0 0 1 -13.17 29.23) translate(-212.6, -85.04)" d="M 0 170.079 H 425.2 V 0 H 0 Z" stroke-linecap="round" />
</clipPath>
<path style="stroke: none; stroke-width: 1; stroke-dasharray: none; stroke-linecap: butt; stroke-dashoffset: 0; stroke-linejoin: miter; stroke-miterlimit: 4; fill: rgb(35,31,32); fill-rule: nonzero; opacity: 1;"  transform=" translate(0.09, 2.74)" d="m 0 0 c -0.869 0 -1.336 -0.658 -1.4 -1.974 h 2.769 v 0.191 c 0 0.531 -0.111 0.96 -0.334 1.29 C 0.813 -0.165 0.467 0 0 0 m 3.072 -3.374 h -4.456 c 0.032 -0.626 0.173 -1.111 0.421 -1.456 c 0.249 -0.345 0.688 -0.518 1.313 -0.518 c 0.626 0 1.322 0.187 2.085 0.558 C 2.732 -5.077 2.923 -5.48 3.008 -6 C 2.159 -6.605 1.139 -6.907 -0.056 -6.907 c -1.193 0 -2.05 0.388 -2.569 1.161 c -0.521 0.775 -0.781 1.778 -0.781 3.008 c 0 1.231 0.288 2.233 0.86 3.008 c 0.573 0.774 1.393 1.162 2.459 1.162 c 1.067 0 1.886 -0.321 2.459 -0.963 c 0.572 -0.642 0.859 -1.451 0.859 -2.427 c 0 -0.488 -0.054 -0.96 -0.159 -1.416" stroke-linecap="round" />
</g>
		<g transform="matrix(1.33 0 0 -1.33 28.5 41.14)" clip-path="url(#CLIPPATH_16)"  >
<clipPath id="CLIPPATH_16" >
	<path transform="matrix(1 0 0 1 -21.38 30.87) translate(-212.6, -85.04)" d="M 0 170.079 H 425.2 V 0 H 0 Z" stroke-linecap="round" />
</clipPath>
<path style="stroke: none; stroke-width: 1; stroke-dasharray: none; stroke-linecap: butt; stroke-dashoffset: 0; stroke-linejoin: miter; stroke-miterlimit: 4; fill: rgb(35,31,32); fill-rule: nonzero; opacity: 1;"  transform=" translate(1.22, -0.06)" d="M 0 0 V 3.692 C -0.467 4.126 -0.923 4.344 -1.369 4.344 C -1.815 4.344 -2.163 4.116 -2.411 3.66 C -2.66 3.203 -2.785 2.551 -2.785 1.702 c 0 -0.849 0.113 -1.475 0.342 -1.877 c 0.228 -0.403 0.527 -0.606 0.899 -0.606 c 0.574 0 1.087 0.261 1.544 0.781 m -4.09 -1.29 c -0.478 0.732 -0.717 1.743 -0.717 3.032 c 0 1.289 0.304 2.3 0.908 3.032 c 0.605 0.732 1.331 1.098 2.18 1.098 c 0.849 0 1.564 -0.265 2.149 -0.796 C 0.738 5.468 1.156 5.697 1.686 5.76 C 1.835 5.665 1.976 5.516 2.108 5.315 C 2.241 5.114 2.328 4.927 2.37 4.758 C 2.074 4.503 1.925 4.047 1.925 3.39 v -4.521 c 0 -1.686 -0.276 -2.88 -0.827 -3.58 c -0.551 -0.7 -1.459 -1.05 -2.722 -1.05 c -0.986 0 -1.936 0.18 -2.848 0.54 c 0 0.585 0.164 1.066 0.494 1.449 c 0.731 -0.329 1.445 -0.494 2.139 -0.494 c 0.696 0 1.175 0.175 1.441 0.526 C -0.133 -3.39 0 -2.902 0 -2.276 v 0.636 c -0.605 -0.499 -1.268 -0.748 -1.99 -0.748 c -0.923 0 -1.623 0.366 -2.1 1.098" stroke-linecap="round" />
</g>
		<g transform="matrix(1.33 0 0 -1.33 39.68 38.95)" clip-path="url(#CLIPPATH_17)"  >
<clipPath id="CLIPPATH_17" >
	<path transform="matrix(1 0 0 1 -29.77 29.23) translate(-212.6, -85.04)" d="M 0 170.079 H 425.2 V 0 H 0 Z" stroke-linecap="round" />
</clipPath>
<path style="stroke: none; stroke-width: 1; stroke-dasharray: none; stroke-linecap: butt; stroke-dashoffset: 0; stroke-linejoin: miter; stroke-miterlimit: 4; fill: rgb(35,31,32); fill-rule: nonzero; opacity: 1;"  transform=" translate(0, 2.67)" d="m 0 0 c -1.002 0 -1.503 -0.891 -1.503 -2.674 c 0 -1.782 0.501 -2.674 1.503 -2.674 c 1.002 0 1.503 0.892 1.503 2.674 C 1.503 -0.891 1.002 0 0 0 M 3.525 -2.674 C 3.525 -4.096 3.148 -5.183 2.396 -5.936 C 1.79 -6.541 0.992 -6.843 0 -6.843 c -0.992 0 -1.791 0.302 -2.395 0.907 c -0.754 0.753 -1.13 1.84 -1.13 3.262 c 0 1.422 0.376 2.509 1.13 3.263 c 0.604 0.604 1.403 0.906 2.395 0.906 c 0.992 0 1.79 -0.302 2.396 -0.906 c 0.752 -0.754 1.129 -1.841 1.129 -3.263" stroke-linecap="round" />
</g>
		<g transform="matrix(1.33 0 0 -1.33 49.94 38.93)" clip-path="url(#CLIPPATH_18)"  >
<clipPath id="CLIPPATH_18" >
	<path transform="matrix(1 0 0 1 -37.46 29.21) translate(-212.6, -85.04)" d="M 0 170.079 H 425.2 V 0 H 0 Z" stroke-linecap="round" />
</clipPath>
<path style="stroke: none; stroke-width: 1; stroke-dasharray: none; stroke-linecap: butt; stroke-dashoffset: 0; stroke-linejoin: miter; stroke-miterlimit: 4; fill: rgb(35,31,32); fill-rule: nonzero; opacity: 1;"  transform=" translate(0.16, -2.42)" d="M 0 0 L 1.688 6.35 C 1.91 6.392 2.191 6.414 2.531 6.414 C 2.87 6.414 3.167 6.366 3.422 6.271 L 3.485 6.175 C 2.457 2.674 1.672 0.101 1.131 -1.543 C 0.706 -1.607 0.258 -1.639 -0.215 -1.639 c -0.471 0 -0.809 0.07 -1.01 0.207 c -0.201 0.138 -0.366 0.414 -0.493 0.827 l -2.085 6.796 c 0.413 0.191 0.785 0.286 1.114 0.286 c 0.583 0 0.949 -0.296 1.098 -0.891 L -0.668 2.308 C -0.583 2.032 -0.408 1.306 -0.143 0.127 C -0.133 0.043 -0.084 0 0 0" stroke-linecap="round" />
</g>
		<g transform="matrix(1.33 0 0 -1.33 57.62 36.85)" clip-path="url(#CLIPPATH_19)"  >
<clipPath id="CLIPPATH_19" >
	<path transform="matrix(1 0 0 1 -43.23 27.65) translate(-212.6, -85.04)" d="M 0 170.079 H 425.2 V 0 H 0 Z" stroke-linecap="round" />
</clipPath>
<path style="stroke: none; stroke-width: 1; stroke-dasharray: none; stroke-linecap: butt; stroke-dashoffset: 0; stroke-linejoin: miter; stroke-miterlimit: 4; fill: rgb(35,31,32); fill-rule: nonzero; opacity: 1;"  transform=" translate(-0.83, 3.8)" d="m 0 0 c -0.106 0.243 -0.159 0.506 -0.159 0.788 c 0 0.28 0.053 0.543 0.159 0.787 c 0.276 0.149 0.618 0.223 1.026 0.223 c 0.409 0 0.735 -0.074 0.98 -0.223 C 2.111 1.331 2.165 1.068 2.165 0.788 C 2.165 0.506 2.111 0.243 2.006 0 C 1.761 -0.149 1.419 -0.223 0.978 -0.223 C 0.539 -0.223 0.213 -0.149 0 0 m 2.308 -2.976 v -6.35 c -0.298 -0.054 -0.62 -0.08 -0.972 -0.08 c -0.35 0 -0.684 0.026 -1.002 0.08 v 5.618 c 0 0.573 -0.239 0.859 -0.716 0.859 h -0.191 c -0.053 0.18 -0.079 0.408 -0.079 0.684 c 0 0.276 0.026 0.515 0.079 0.716 c 0.382 0.042 0.77 0.064 1.162 0.064 h 0.254 c 0.457 0 0.815 -0.143 1.075 -0.43 c 0.259 -0.286 0.39 -0.674 0.39 -1.161" stroke-linecap="round" />
</g>
		<g transform="matrix(1.33 0 0 -1.33 67.12 38.93)" clip-path="url(#CLIPPATH_20)"  >
<clipPath id="CLIPPATH_20" >
	<path transform="matrix(1 0 0 1 -50.36 29.21) translate(-212.6, -85.04)" d="M 0 170.079 H 425.2 V 0 H 0 Z" stroke-linecap="round" />
</clipPath>
<path style="stroke: none; stroke-width: 1; stroke-dasharray: none; stroke-linecap: butt; stroke-dashoffset: 0; stroke-linejoin: miter; stroke-miterlimit: 4; fill: rgb(35,31,32); fill-rule: nonzero; opacity: 1;"  transform=" translate(3.09, 1.37)" d="m 0 0 v -3.533 c 0 -0.648 0.107 -1.147 0.319 -1.497 c -0.351 -0.276 -0.741 -0.413 -1.17 -0.413 c -0.43 0 -0.724 0.101 -0.883 0.302 c -0.159 0.201 -0.239 0.515 -0.239 0.939 v 3.787 c 0 0.479 -0.063 0.821 -0.191 1.028 c -0.127 0.206 -0.355 0.31 -0.684 0.31 c -0.605 0 -1.162 -0.266 -1.671 -0.796 v -5.459 c -0.297 -0.053 -0.621 -0.079 -0.971 -0.079 c -0.35 0 -0.684 0.026 -1.002 0.079 v 7.878 l 0.111 0.095 h 0.732 c 0.605 0 0.965 -0.318 1.082 -0.955 c 0.775 0.679 1.546 1.019 2.316 1.019 c 0.769 0 1.336 -0.249 1.702 -0.748 C -0.183 1.458 0 0.806 0 0" stroke-linecap="round" />
</g>
		<g transform="matrix(1.33 0 0 -1.33 78.06 38.99)" clip-path="url(#CLIPPATH_21)"  >
<clipPath id="CLIPPATH_21" >
	<path transform="matrix(1 0 0 1 -58.55 29.25) translate(-212.6, -85.04)" d="M 0 170.079 H 425.2 V 0 H 0 Z" stroke-linecap="round" />
</clipPath>
<path style="stroke: none; stroke-width: 1; stroke-dasharray: none; stroke-linecap: butt; stroke-dashoffset: 0; stroke-linejoin: miter; stroke-miterlimit: 4; fill: rgb(35,31,32); fill-rule: nonzero; opacity: 1;"  transform=" translate(-0.56, -2.63)" d="M 0 0 C 0.552 0 1.083 0.255 1.592 0.765 V 2.181 C 1.22 2.223 0.817 2.244 0.382 2.244 C -0.053 2.244 -0.382 2.133 -0.605 1.91 C -0.827 1.688 -0.939 1.406 -0.939 1.067 c 0 -0.34 0.086 -0.602 0.255 -0.789 C -0.515 0.093 -0.286 0 0 0 M 3.994 -0.398 C 3.942 -0.578 3.849 -0.766 3.716 -0.963 C 3.583 -1.159 3.448 -1.31 3.31 -1.416 c -0.658 0.074 -1.141 0.382 -1.447 0.923 c -0.7 -0.679 -1.46 -1.018 -2.277 -1.018 c -0.817 0 -1.431 0.238 -1.845 0.716 c -0.415 0.477 -0.622 1.029 -0.622 1.655 c 0 0.891 0.29 1.562 0.868 2.013 c 0.578 0.451 1.319 0.676 2.22 0.676 c 0.488 0 0.95 -0.021 1.385 -0.064 v 0.478 c 0 0.838 -0.403 1.258 -1.21 1.258 c -0.573 0 -1.384 -0.191 -2.434 -0.573 C -2.36 4.976 -2.535 5.449 -2.577 6.064 C -1.432 6.541 -0.286 6.78 0.859 6.78 C 1.656 6.78 2.302 6.557 2.801 6.111 C 3.3 5.666 3.549 4.992 3.549 4.091 V 0.844 c 0 -0.584 0.149 -0.997 0.445 -1.242" stroke-linecap="round" />
</g>
		<g transform="matrix(1.33 0 0 -1.33 40.78 -27.43)" clip-path="url(#CLIPPATH_22)"  >
<clipPath id="CLIPPATH_22" >
	<path transform="matrix(1 0 0 1 -30.87 -20.55) translate(-212.6, -85.04)" d="M 0 170.079 H 425.2 V 0 H 0 Z" stroke-linecap="round" />
</clipPath>
<path style="stroke: none; stroke-width: 1; stroke-dasharray: none; stroke-linecap: butt; stroke-dashoffset: 0; stroke-linejoin: miter; stroke-miterlimit: 4; fill: rgb(35,31,32); fill-rule: evenodd; opacity: 1;"  transform=" translate(-110.19, 10.12)" d="m 0 0 h 14.741 l -0.03 -3.246 H 9.213 L 8.92 -20.186 H 5.119 l 0.292 16.94 h -5.528 z m 21.175 -3.013 l -0.088 -6.083 h 2.135 c 1.287 0 2.281 0.264 2.983 0.79 c 0.702 0.527 1.053 1.286 1.053 2.281 c 0 0.994 -0.292 1.755 -0.906 2.252 c -0.615 0.497 -1.521 0.76 -2.691 0.76 z M 17.489 0 h 6.318 c 2.398 0 4.182 -0.468 5.382 -1.404 c 1.199 -0.936 1.813 -2.34 1.813 -4.241 c 0 -1.403 -0.38 -2.603 -1.17 -3.538 c -0.761 -0.907 -1.843 -1.521 -3.247 -1.843 c 0.469 -0.176 0.937 -0.468 1.375 -0.878 c 0.41 -0.41 0.908 -1.023 1.433 -1.842 l 3.335 -5.147 l -3.188 -1.878 l -4.358 6.762 c -0.469 0.731 -0.906 1.199 -1.375 1.491 c -0.438 0.263 -1.023 0.41 -1.784 0.41 h -0.936 l -0.175 -8.078 H 17.197 Z M 43.93 -3.188 c -0.059 -0.38 -0.118 -0.76 -0.234 -1.17 c -0.118 -0.439 -0.293 -0.906 -0.498 -1.404 l -2.311 -6.171 h 5.967 l -2.164 6.112 c -0.117 0.322 -0.234 0.673 -0.351 1.141 c -0.147 0.44 -0.263 0.936 -0.409 1.492 M 42.028 0 h 4.211 l 7.488 -19.42 l -3.626 -1.321 l -2.165 5.912 h -8.189 l -2.252 -5.766 l -3.656 1.146 z m 14.42 -0.702 l 3.948 1.17 l 7.985 -13.162 c 0.468 -0.789 0.818 -1.433 1.081 -1.93 c 0.293 -0.526 0.498 -0.995 0.673 -1.462 c -0.118 0.936 -0.175 1.755 -0.234 2.457 c -0.058 0.702 -0.088 1.287 -0.088 1.813 c 0 0.059 0 0.175 0.03 0.322 V -11.202 V 0 h 3.509 l -0.059 -19.537 l -3.86 -1.145 l -8.247 13.604 c -0.205 0.351 -0.439 0.732 -0.673 1.199 c -0.235 0.469 -0.527 1.141 -0.907 1.989 c 0.088 -0.556 0.146 -1.141 0.205 -1.813 c 0.03 -0.643 0.059 -1.668 0.059 -3.042 v -0.293 c 0.029 -0.117 0.029 -0.233 0.029 -0.292 c 0 -0.088 0 -0.147 -0.029 -0.205 V -9.623 V -20.186 H 56.389 Z M 89.788 -1.2 L 88.327 -3.919 c -0.761 0.468 -1.462 0.79 -2.164 0.994 c -0.674 0.234 -1.346 0.351 -1.96 0.351 c -0.966 0 -1.726 -0.233 -2.312 -0.702 c -0.584 -0.468 -0.876 -1.082 -0.876 -1.843 c 0 -0.994 1.082 -2.075 3.246 -3.187 c 0.234 -0.118 0.44 -0.234 0.556 -0.293 c 0.088 -0.058 0.235 -0.117 0.439 -0.233 c 1.579 -0.819 2.661 -1.639 3.246 -2.458 c 0.351 -0.467 0.614 -0.994 0.79 -1.579 c 0.175 -0.556 0.263 -1.14 0.263 -1.783 c 0 -1.784 -0.643 -3.218 -1.901 -4.3 c -1.258 -1.112 -2.925 -1.643 -5.002 -1.643 c -0.964 0 -1.9 0.117 -2.808 0.351 c -0.906 0.268 -1.812 0.648 -2.689 1.146 l 1.374 2.954 c 0.673 -0.469 1.315 -0.79 1.93 -0.994 c 0.645 -0.236 1.287 -0.322 1.96 -0.322 c 0.964 0 1.725 0.234 2.31 0.73 c 0.585 0.468 0.878 1.111 0.878 1.931 c 0 1.141 -1.141 2.311 -3.365 3.509 c -0.232 0.118 -0.379 0.205 -0.496 0.264 c -1.755 0.906 -2.895 1.784 -3.509 2.602 c -0.586 0.82 -0.878 1.814 -0.878 3.042 c 0 1.755 0.613 3.159 1.843 4.182 c 1.227 1.024 2.866 1.551 4.972 1.551 c 0.878 0 1.813 -0.118 2.719 -0.38 c 0.937 -0.263 1.902 -0.644 2.895 -1.171 m 7.459 -1.432 l -0.117 -6.961 h 2.134 c 1.375 0 2.486 0.292 3.218 0.907 c 0.76 0.613 1.141 1.492 1.141 2.603 c 0 1.111 -0.351 1.988 -1.024 2.574 c -0.672 0.584 -1.667 0.877 -2.925 0.877 z M 93.62 0 h 7.019 c 2.136 0 3.745 -0.527 4.885 -1.55 c 1.141 -1.053 1.696 -2.545 1.696 -4.475 c 0 -1.901 -0.615 -3.422 -1.902 -4.563 c -1.256 -1.14 -2.953 -1.726 -5.06 -1.726 h -3.1 l -0.146 -7.872 h -3.743 z m 24.831 -3.188 c -0.059 -0.38 -0.118 -0.76 -0.235 -1.17 c -0.116 -0.439 -0.291 -0.906 -0.496 -1.404 l -2.311 -6.171 h 5.967 l -2.164 6.112 c -0.117 0.322 -0.235 0.673 -0.352 1.141 c -0.146 0.44 -0.263 0.936 -0.409 1.492 M 116.55 0 h 4.211 l 7.488 -19.42 l -3.626 -1.321 l -2.165 5.912 h -8.19 l -2.251 -5.766 l -3.656 1.146 z m 18.308 -3.013 l -0.088 -6.083 h 2.136 c 1.287 0 2.281 0.264 2.983 0.79 c 0.702 0.527 1.053 1.286 1.053 2.281 c 0 0.994 -0.292 1.755 -0.907 2.252 c -0.614 0.497 -1.521 0.76 -2.691 0.76 z M 131.173 0 h 6.318 c 2.398 0 4.183 -0.468 5.382 -1.404 c 1.199 -0.936 1.813 -2.34 1.813 -4.241 c 0 -1.403 -0.38 -2.603 -1.17 -3.538 c -0.76 -0.907 -1.842 -1.521 -3.246 -1.843 c 0.468 -0.176 0.936 -0.468 1.373 -0.878 c 0.411 -0.41 0.909 -1.023 1.434 -1.842 l 3.335 -5.147 l -3.188 -1.878 l -4.358 6.762 c -0.469 0.731 -0.906 1.199 -1.375 1.491 c -0.438 0.263 -1.023 0.41 -1.784 0.41 h -0.937 l -0.174 -8.078 h -3.715 z m 18.632 0 h 11.143 l -0.029 -3.158 h -7.429 l -0.088 -5.119 h 7.252 l -0.057 -3.1 h -7.254 l -0.088 -5.616 h 7.634 l -0.059 -3.193 h -11.376 z m 14.623 -0.702 l 3.949 1.17 l 7.984 -13.162 c 0.468 -0.789 0.819 -1.433 1.082 -1.93 c 0.293 -0.526 0.497 -0.995 0.673 -1.462 c -0.117 0.936 -0.176 1.755 -0.234 2.457 c -0.058 0.702 -0.088 1.287 -0.088 1.813 c 0 0.059 0 0.175 0.03 0.322 V -11.202 V 0 h 3.509 l -0.059 -19.537 l -3.86 -1.145 l -8.248 13.604 c -0.205 0.351 -0.439 0.732 -0.673 1.199 c -0.234 0.469 -0.526 1.141 -0.906 1.989 c 0.088 -0.556 0.146 -1.141 0.205 -1.813 c 0.029 -0.643 0.057 -1.668 0.057 -3.042 v -0.293 c 0.03 -0.117 0.03 -0.233 0.03 -0.292 c 0 -0.088 0 -0.147 -0.03 -0.205 v -0.088 v -10.563 h -3.479 z m 37.524 -0.146 l -0.936 -3.042 c -0.76 0.381 -1.55 0.644 -2.31 0.819 c -0.761 0.176 -1.521 0.264 -2.282 0.264 c -2.193 0 -3.949 -0.673 -5.293 -2.019 c -1.345 -1.374 -2.019 -3.129 -2.019 -5.294 c 0 -2.076 0.644 -3.772 1.96 -5.089 c 1.316 -1.345 2.983 -2.017 5.031 -2.017 c 0.672 0 1.432 0.117 2.222 0.321 c 0.79 0.175 1.667 0.498 2.632 0.906 l 0.848 -3.012 c -1.228 -0.497 -2.397 -0.878 -3.538 -1.111 c -1.112 -0.268 -2.223 -0.385 -3.275 -0.385 c -1.258 0 -2.457 0.205 -3.598 0.648 c -1.171 0.439 -2.165 1.082 -3.071 1.901 c -1.053 0.965 -1.842 2.106 -2.399 3.451 c -0.555 1.346 -0.818 2.837 -0.818 4.446 c 0 1.521 0.263 2.895 0.789 4.153 c 0.498 1.287 1.258 2.399 2.281 3.393 c 0.995 0.965 2.107 1.667 3.422 2.164 c 1.288 0.498 2.691 0.731 4.242 0.731 c 0.994 0 1.987 -0.087 2.981 -0.292 c 1.026 -0.206 2.049 -0.527 3.131 -0.936 m 1.492 -0.497 l 3.247 1.754 l 3.948 -6.785 c 0.146 -0.234 0.321 -0.585 0.555 -1.053 c 0.204 -0.467 0.44 -0.965 0.702 -1.55 c 0.233 0.439 0.468 0.848 0.702 1.287 c 0.234 0.409 0.468 0.819 0.702 1.228 l 4.211 6.991 l 2.984 -1.902 l -6.669 -10.207 l -0.145 -8.604 h -3.803 l 0.116 8.545 z" stroke-linecap="round" />
</g>
		<g transform="matrix(1.33 0 0 -1.33 44.42 7.75)" clip-path="url(#CLIPPATH_23)"  >
<clipPath id="CLIPPATH_23" >
	<path transform="matrix(1 0 0 1 -33.59 5.84) translate(-212.6, -85.04)" d="M 0 170.079 H 425.2 V 0 H 0 Z" stroke-linecap="round" />
</clipPath>
<path style="stroke: none; stroke-width: 1; stroke-dasharray: none; stroke-linecap: butt; stroke-dashoffset: 0; stroke-linejoin: miter; stroke-miterlimit: 4; fill: rgb(35,31,32); fill-rule: evenodd; opacity: 1;"  transform=" translate(-107.94, 9.86)" d="M 0 0 H 3.606 L 3.265 -19.598 h -3.606 z m 7.951 -0.682 l 3.832 1.136 l 7.753 -12.776 c 0.454 -0.769 0.794 -1.392 1.05 -1.876 c 0.284 -0.51 0.483 -0.964 0.653 -1.419 c -0.114 0.909 -0.17 1.703 -0.227 2.385 c -0.057 0.682 -0.086 1.249 -0.086 1.761 c 0 0.057 0 0.17 0.029 0.311 V -10.876 V 0 h 3.407 l -0.056 -18.967 l -3.748 -1.114 l -8.007 13.21 c -0.199 0.34 -0.426 0.71 -0.654 1.164 c -0.226 0.454 -0.511 1.106 -0.88 1.93 c 0.086 -0.539 0.141 -1.106 0.198 -1.759 c 0.029 -0.625 0.057 -1.619 0.057 -2.953 v -0.285 c 0.029 -0.112 0.029 -0.227 0.029 -0.284 c 0 -0.085 0 -0.142 -0.029 -0.198 V -9.343 V -19.598 H 7.894 Z M 27.116 0 h 14.311 l -0.028 -3.151 h -5.338 l -0.284 -16.447 h -3.691 l 0.283 16.447 h -5.366 z m 17.122 0 h 10.819 l -0.028 -3.067 h -7.213 l -0.085 -4.969 h 7.042 l -0.057 -3.01 h -7.042 l -0.084 -5.452 h 7.411 l -0.058 -3.1 H 43.898 Z M 62.213 -2.925 L 62.127 -8.831 H 64.2 c 1.249 0 2.215 0.255 2.896 0.767 c 0.681 0.51 1.023 1.249 1.023 2.215 c 0 0.966 -0.284 1.703 -0.881 2.185 c -0.596 0.484 -1.476 0.739 -2.612 0.739 z M 58.635 0 h 6.133 c 2.328 0 4.06 -0.454 5.225 -1.363 c 1.164 -0.908 1.76 -2.272 1.76 -4.116 c 0 -1.364 -0.369 -2.528 -1.135 -3.438 c -0.738 -0.88 -1.79 -1.475 -3.152 -1.787 c 0.454 -0.172 0.908 -0.456 1.334 -0.852 c 0.398 -0.399 0.881 -0.994 1.392 -1.789 l 3.236 -4.999 l -3.094 -1.821 l -4.231 6.564 c -0.455 0.71 -0.88 1.164 -1.335 1.448 c -0.426 0.257 -0.994 0.398 -1.732 0.398 h -0.909 l -0.17 -7.843 h -3.606 z m 17.747 -0.682 l 3.833 1.136 l 7.753 -12.776 c 0.453 -0.769 0.793 -1.392 1.05 -1.876 c 0.283 -0.51 0.482 -0.964 0.652 -1.419 c -0.114 0.909 -0.17 1.703 -0.227 2.385 c -0.057 0.682 -0.085 1.249 -0.085 1.761 c 0 0.057 0 0.17 0.028 0.311 V -10.876 V 0 h 3.408 l -0.057 -18.967 l -3.748 -1.114 l -8.007 13.21 c -0.199 0.34 -0.426 0.71 -0.654 1.164 c -0.226 0.454 -0.51 1.106 -0.879 1.93 c 0.085 -0.539 0.141 -1.106 0.197 -1.759 c 0.029 -0.625 0.057 -1.619 0.057 -2.953 v -0.285 c 0.03 -0.112 0.03 -0.227 0.03 -0.284 c 0 -0.085 0 -0.142 -0.03 -0.198 v -0.087 v -10.255 h -3.378 z m 28.622 -2.413 c -0.058 -0.369 -0.114 -0.738 -0.229 -1.136 c -0.112 -0.426 -0.283 -0.881 -0.482 -1.363 l -2.243 -5.992 h 5.793 l -2.102 5.935 c -0.113 0.312 -0.227 0.653 -0.341 1.108 c -0.141 0.425 -0.255 0.908 -0.396 1.448 M 103.158 0 h 4.088 l 7.269 -18.854 l -3.52 -1.283 l -2.102 5.741 h -7.95 l -2.187 -5.6 l -3.549 1.113 z m 12.464 0 h 14.311 l -0.027 -3.151 h -5.338 l -0.284 -16.447 h -3.691 l 0.284 16.447 h -5.367 z m 17.18 0 h 3.606 l -0.341 -19.598 h -3.606 z m 17.407 -2.726 c -1.932 0 -3.465 -0.624 -4.629 -1.931 c -1.136 -1.307 -1.704 -3.065 -1.704 -5.253 c 0 -2.102 0.568 -3.776 1.732 -5.055 c 1.136 -1.277 2.669 -1.902 4.571 -1.902 c 1.931 0 3.494 0.653 4.629 1.93 c 1.136 1.308 1.732 3.069 1.732 5.253 c 0 2.102 -0.596 3.778 -1.732 5.055 c -1.165 1.279 -2.698 1.903 -4.599 1.903 m 0 3.067 c 1.561 0 2.924 -0.227 4.088 -0.653 c 1.191 -0.426 2.215 -1.108 3.122 -1.988 c 0.938 -0.936 1.677 -2.072 2.187 -3.379 c 0.511 -1.306 0.767 -2.697 0.767 -4.174 c 0 -1.392 -0.256 -2.725 -0.795 -4.061 c -0.512 -1.305 -1.221 -2.412 -2.129 -3.294 c -0.909 -0.908 -1.989 -1.59 -3.209 -2.043 c -1.193 -0.46 -2.527 -0.686 -4.004 -0.686 c -1.59 0 -2.981 0.198 -4.117 0.629 c -1.165 0.425 -2.214 1.107 -3.152 2.015 c -0.965 0.967 -1.705 2.074 -2.187 3.323 c -0.51 1.25 -0.766 2.612 -0.766 4.088 c 0 3.039 0.937 5.481 2.811 7.383 c 1.902 1.902 4.373 2.84 7.384 2.84 m 13.713 -1.023 l 3.834 1.136 l 7.751 -12.776 c 0.455 -0.769 0.795 -1.392 1.051 -1.876 c 0.284 -0.51 0.483 -0.964 0.653 -1.419 c -0.113 0.909 -0.17 1.703 -0.227 2.385 c -0.056 0.682 -0.086 1.249 -0.086 1.761 c 0 0.057 0 0.17 0.03 0.311 V -10.876 V 0 h 3.406 l -0.057 -18.967 l -3.747 -1.114 l -8.007 13.21 c -0.199 0.34 -0.426 0.71 -0.654 1.164 c -0.227 0.454 -0.51 1.106 -0.88 1.93 c 0.085 -0.539 0.142 -1.106 0.199 -1.759 c 0.028 -0.625 0.057 -1.619 0.057 -2.953 v -0.285 c 0.028 -0.112 0.028 -0.227 0.028 -0.284 c 0 -0.085 0 -0.142 -0.028 -0.198 v -0.087 v -10.255 h -3.379 z m 28.622 -2.413 c -0.056 -0.369 -0.113 -0.738 -0.227 -1.136 c -0.114 -0.426 -0.284 -0.881 -0.483 -1.363 l -2.242 -5.992 h 5.791 l -2.101 5.935 c -0.113 0.312 -0.227 0.653 -0.341 1.108 c -0.142 0.425 -0.255 0.908 -0.397 1.448 M 190.698 0 h 4.089 l 7.269 -18.854 l -3.521 -1.283 l -2.101 5.741 h -7.951 l -2.186 -5.6 l -3.549 1.113 z m 14.452 0 h 3.692 l -0.283 -16.354 h 7.667 l -0.058 -3.244 h -11.357 z" stroke-linecap="round" />
</g>
		<g transform="matrix(1.33 0 0 -1.33 -154.21 -25.51)" clip-path="url(#CLIPPATH_24)"  >
<clipPath id="CLIPPATH_24" >
	<path transform="matrix(1 0 0 1 115.65 -19.12) translate(-212.6, -85.04)" d="M 0 170.079 H 425.2 V 0 H 0 Z" stroke-linecap="round" />
</clipPath>
<path style="stroke: none; stroke-width: 1; stroke-dasharray: none; stroke-linecap: butt; stroke-dashoffset: 0; stroke-linejoin: miter; stroke-miterlimit: 4; fill: rgb(35,31,32); fill-rule: evenodd; opacity: 1;"  transform=" translate(-4.52, 0)" d="m 0 0 c 0 -2.466 2.017 -4.518 4.514 -4.518 c 2.501 0 4.529 2.052 4.529 4.518 c 0 2.498 -2.028 4.528 -4.529 4.528 C 2.017 4.528 0 2.498 0 0" stroke-linecap="round" />
</g>
		<g transform="matrix(1.33 0 0 -1.33 -152 -10.12)" clip-path="url(#CLIPPATH_25)"  >
<clipPath id="CLIPPATH_25" >
	<path transform="matrix(1 0 0 1 113.93 -7.52) translate(-212.6, -85.04)" d="M 0 170.079 H 425.2 V 0 H 0 Z" stroke-linecap="round" />
</clipPath>
<path style="stroke: none; stroke-width: 1; stroke-dasharray: none; stroke-linecap: butt; stroke-dashoffset: 0; stroke-linejoin: miter; stroke-miterlimit: 4; fill: rgb(35,31,32); fill-rule: evenodd; opacity: 1;"  transform=" translate(4.93, -24.39)" d="m 0 0 c -3.067 3.206 -5.155 8.067 -5.03 16.672 c -3.03 0 -6.336 0.473 -9.849 1.214 C -14.808 10.63 -12.986 4.828 -9.985 0 C -13.324 2.498 -15.749 7.898 -16.157 19.72 C -2.029 15.763 11.17 17.886 19.936 29.669 C 20.512 16.47 16.564 5.334 0 0 m -23.949 34.094 c -1.42 0.501 -2.361 1.884 -2.562 5.329 c 4.818 6.042 10.387 9.525 16.695 10.87 c -7.091 -3.68 -11.703 -9.319 -14.133 -16.199 m -6.009 -4.354 c 1.49 -2.634 2.871 -4.354 4.323 -5.269 c -0.675 -4.86 -0.071 -9.753 1.413 -14.647 c -3.877 3.37 -5.905 9.683 -5.736 19.916 m 41.873 16.606 l -1.05 -0.881 l 5.596 -5.334 C 15.792 29.092 1.887 27.606 -14.574 29.876 c 3.17 14.206 9.043 23.889 20.208 18.392 l 0.875 1.214 c -3.371 1.485 -7.651 2.569 -11.43 2.569 c -15.249 0 -27.669 -12.426 -27.669 -27.645 c 0 -15.256 12.42 -27.682 27.669 -27.682 c 15.21 0 27.658 12.426 27.658 27.682 c 0 8.54 -4.112 16.742 -10.822 21.94" stroke-linecap="round" />
</g>
</g>
</g>
</svg>